<svg width="74" height="54" viewBox="0 0 74 54" fill="none" xmlns="http://www.w3.org/2000/svg">
<path d="M35.3802 14.5107H44.7767V15.5214C43.6948 15.9344 42.7455 16.633 42.03 17.5428C41.0945 18.7771 40.34 20.1384 39.7893 21.5856L32.0553 40.6805H30.8627L22.695 20.6471L14.5996 40.6805H13.4792L5.41997 20.6471C4.69717 18.8783 4.1912 17.6872 3.90208 17.0374C3.64716 16.5343 3.25985 16.11 2.78173 15.8102C2.14249 15.4976 1.43151 15.3606 0.721741 15.4131V14.4024H13.1901V15.4131H12.6842C10.7687 15.4131 9.82908 15.8823 9.82908 16.893C9.91642 17.779 10.1484 18.6447 10.5157 19.4559L16.1898 33.5695L22.0445 19.131C21.7991 18.3583 21.4593 17.6187 21.0326 16.9291C20.8278 16.5645 20.548 16.2472 20.2117 15.9984C19.8753 15.7495 19.4899 15.5746 19.081 15.4853H17.5269V14.4746H30.3567V15.4853C29.5518 15.4641 28.7481 15.5614 27.9715 15.7741C27.7195 15.8178 27.4923 15.952 27.3325 16.1515C27.1727 16.3509 27.0915 16.6018 27.1041 16.857C27.2563 18.0626 27.6106 19.234 28.1522 20.3222L33.6455 33.8222L38.163 22.6685C38.4452 22.0471 38.6867 21.408 38.8858 20.7553C39.0177 20.1389 39.0543 19.5059 38.9942 18.8783C39.0329 18.427 38.9647 17.973 38.7952 17.5528C38.6257 17.1327 38.3596 16.7583 38.0185 16.4599C37.1842 15.8381 36.1681 15.5083 35.1272 15.5214L35.3802 14.5107ZM5.52839 19.2393L13.6961 39.6337L13.9491 39.1644C14.0473 38.9908 14.1318 38.8097 14.202 38.623C14.2331 38.4438 14.2331 38.2607 14.202 38.0815C14.1938 37.579 14.0701 37.085 13.8406 36.6377L7.01014 19.2393C6.67208 18.3645 6.286 17.5089 5.85365 16.6765C5.62203 16.2574 5.2694 15.9178 4.84173 15.7019C4.28467 15.5582 3.7002 15.5582 3.14314 15.7019C3.66377 15.9989 4.08974 16.4368 4.3719 16.9652C4.81061 17.6951 5.19707 18.455 5.52839 19.2393V19.2393ZM22.7311 18.9505L31.1518 39.5254C31.4883 39.0032 31.6986 38.4101 31.7662 37.7928C31.7051 37.2903 31.5584 36.802 31.3325 36.3489L24.1045 18.3008C23.7069 17.3984 23.4178 16.8209 23.2371 16.4599C23.0148 16.126 22.7012 15.8629 22.3336 15.7019C21.7688 15.4874 21.1665 15.3891 20.5627 15.4131C21.5993 16.3692 22.3499 17.5937 22.7311 18.9505ZM42.03 15.5214H37.8378C38.4189 15.782 38.9094 16.2092 39.2472 16.7487C39.5359 17.2561 39.6971 17.8258 39.717 18.4091C39.9911 17.8271 40.3177 17.2714 40.6928 16.7487C41.0663 16.2674 41.5184 15.8525 42.03 15.5214Z" fill="#52F2DF"/>
<path d="M39.6675 36.0602C40.3526 36.0381 41.0218 36.2695 41.5468 36.7099C41.8132 36.9005 42.0329 37.1489 42.1894 37.4365C42.3459 37.7241 42.4351 38.0433 42.4503 38.3703C42.4531 38.7835 42.3268 39.1873 42.0889 39.5254C41.8347 39.8761 41.5001 40.1608 41.1131 40.3556C40.7141 40.5725 40.2663 40.6843 39.812 40.6805C39.134 40.6869 38.4774 40.4427 37.9689 39.9946C37.7321 39.7913 37.542 39.5393 37.4117 39.2559C37.2814 38.9724 37.214 38.6642 37.214 38.3523C37.214 38.0404 37.2814 37.7321 37.4117 37.4487C37.542 37.1652 37.7321 36.9132 37.9689 36.7099C38.4417 36.3017 39.0427 36.0719 39.6675 36.0602ZM40.1012 39.8863C39.8518 39.666 39.622 39.4245 39.4145 39.1644C39.272 38.924 39.1971 38.6497 39.1977 38.3703C39.1733 38.0428 39.2489 37.7156 39.4145 37.4318C39.5977 37.1716 39.8311 36.9507 40.1012 36.7821H39.5952C39.1293 36.7732 38.6774 36.9408 38.3303 37.2513C38.1585 37.3985 38.0211 37.5813 37.9274 37.7871C37.8338 37.9928 37.7863 38.2165 37.7882 38.4425C37.7894 38.6576 37.8387 38.8697 37.9325 39.0633C38.0263 39.2569 38.1622 39.4271 38.3303 39.5615C38.6623 39.873 39.1037 40.0415 39.5591 40.0307L40.1012 39.8863Z" fill="#52F2DF"/>
<path d="M47.5461 30.9345H48.9194C49.6118 32.6785 50.562 34.3089 51.7384 35.7714C52.716 36.9875 53.9499 37.9735 55.3524 38.6591C56.608 39.2882 57.9954 39.6099 59.4001 39.5976C60.9992 39.687 62.5842 39.2564 63.9176 38.3703C64.4962 37.9618 64.9687 37.4211 65.2956 36.7932C65.6225 36.1653 65.7944 35.4684 65.7969 34.7607C65.8292 34.1659 65.7329 33.5712 65.5147 33.0169C65.2964 32.4626 64.9613 31.9616 64.532 31.5482C63.697 30.766 62.6776 30.2073 61.5685 29.9238C60.0402 29.4604 58.4827 29.0986 56.9064 28.8409C55.5517 28.6914 54.2106 28.438 52.8949 28.0829C51.7721 27.7666 50.7096 27.2665 49.7507 26.603C48.9205 26.0042 48.2504 25.2109 47.7991 24.2928C47.3358 23.4143 47.0997 22.434 47.1124 21.4412C47.1175 20.4701 47.3268 19.5108 47.7268 18.6257C48.1225 17.6941 48.7098 16.856 49.4507 16.1657C50.1916 15.4755 51.0695 14.9485 52.0275 14.619C53.1823 14.1874 54.4088 13.9792 55.6415 14.0054C56.7694 14.0406 57.893 14.1612 59.0026 14.3663C59.9693 14.5444 60.9476 14.6529 61.9299 14.6912C62.6632 14.6974 63.3896 14.5498 64.0622 14.258H65.6885L66.592 21.73H65.1103C63.9597 19.8026 62.4653 18.1021 60.7011 16.7126C59.1745 15.5271 57.2858 14.9025 55.3524 14.9439C54.368 14.9449 53.395 15.154 52.4973 15.5575C51.6658 15.9362 50.9444 16.52 50.4012 17.254C49.8674 17.918 49.5857 18.749 49.6061 19.6003C49.5787 20.15 49.6982 20.697 49.9522 21.1854C50.2062 21.6738 50.5857 22.086 51.0517 22.3797C52.3564 23.1538 53.8092 23.6457 55.3163 23.8236C57.1955 24.1845 58.9303 24.4372 60.3759 24.6899C61.6113 24.8311 62.8249 25.122 63.9899 25.5562C65.4194 26.1645 66.6651 27.135 67.6039 28.3717C68.4728 29.5546 68.9413 30.9835 68.9411 32.4506C68.9313 33.872 68.5178 35.2614 67.7485 36.4572C66.8393 37.7747 65.5907 38.8223 64.1345 39.4893C62.602 40.2689 60.9029 40.6653 59.1833 40.6444C58.4062 40.67 57.629 40.5972 56.8703 40.4278L54.1598 39.6337C53.2119 39.3199 52.2285 39.1259 51.2324 39.0562C50.731 39.0289 50.2298 39.1154 49.7667 39.3092C49.3035 39.503 48.8903 39.799 48.558 40.1752H47.3654L47.5461 30.9345ZM48.2328 19.3115C48.0163 20.0388 47.8948 20.7911 47.8714 21.5495C47.8814 22.2183 48.0162 22.8793 48.2689 23.4987C48.8196 24.8541 49.7962 25.9942 51.0517 26.7473C51.9027 27.2385 52.8317 27.5804 53.7984 27.7581C54.8103 27.9746 56.2559 28.1912 58.2075 28.48C59.5539 28.624 60.8845 28.8898 62.1829 29.2741C63.416 29.5875 64.525 30.2671 65.3632 31.2233C66.1103 32.0686 66.5104 33.1643 66.4836 34.2915C66.4492 35.2676 66.1494 36.216 65.6162 37.0348C66.154 36.5982 66.5885 36.0481 66.8884 35.424C67.1883 34.8 67.3463 34.1174 67.3509 33.4252C67.3855 32.8085 67.2908 32.1915 67.073 31.6134C66.8552 31.0354 66.5191 30.5091 66.086 30.0682C65.1845 29.2149 64.0952 28.5844 62.9057 28.2273C61.2006 27.7364 59.461 27.3744 57.7015 27.1444L54.3405 26.6391C52.585 26.3449 50.9597 25.5269 49.6784 24.2928C49.1798 23.7639 48.7944 23.139 48.5459 22.4563C48.2973 21.7736 48.1908 21.0474 48.2328 20.3222V19.6725C48.2235 19.5523 48.2235 19.4317 48.2328 19.3115ZM48.2328 34.3276V39.1645C48.5345 38.7934 48.9179 38.4969 49.3531 38.2982C49.8895 38.1872 50.443 38.1872 50.9794 38.2982L49.9675 37.2514C49.6769 36.9444 49.4223 36.6053 49.2086 36.2407C48.81 35.643 48.4825 35.001 48.2328 34.3276V34.3276ZM64.1345 19.1671L63.4117 15.5575C62.9629 15.6731 62.5017 15.7337 62.0383 15.738C61.4799 15.7277 60.9235 15.6673 60.3759 15.5575C60.9171 15.8343 61.416 16.1868 61.8576 16.6043C62.3297 17.0479 62.7761 17.5179 63.1948 18.0121C63.4791 18.4197 63.7932 18.8058 64.1345 19.1671Z" fill="#52F2DF"/>
<path d="M2.06796 54H71.4225C72.8207 54 75.4983 48 72.9262 48H3.57165C2.17348 48 -0.49096 54 2.06796 54Z" fill="#52F2DF"/>
<path d="M72.9409 0H4.53642C3.15741 0 0.529464 6 3.05333 6H71.4578C72.8369 6 75.4778 0 72.9409 0Z" fill="#52F2DF"/>
</svg>
