<svg id="Слой_1" data-name="Слой 1" xmlns="http://www.w3.org/2000/svg" viewBox="0 0 55.34 14.96"><defs><style>.cls-1{fill:#79ccca;}.cls-2{fill:#65c8d0;}</style></defs><title>logo-1</title><path class="cls-1" d="M24,30.39H26.6v.28a1.77,1.77,0,0,0-.76.56,4.51,4.51,0,0,0-.62,1.12l-2.14,5.29h-.33l-2.26-5.55-2.24,5.55h-.31l-2.23-5.55c-.2-.49-.34-.82-.42-1a.86.86,0,0,0-.31-.34,1.11,1.11,0,0,0-.57-.11v-.28h3.45v.28h-.14c-.53,0-.79.13-.79.41a2.26,2.26,0,0,0,.19.71l1.57,3.91,1.62-4a2.73,2.73,0,0,0-.28-.61.82.82,0,0,0-.54-.4l-.43,0v-.28h3.55v.28a2.27,2.27,0,0,0-.66.08.29.29,0,0,0-.24.3A3,3,0,0,0,22,32l1.52,3.74,1.25-3.09a4.36,4.36,0,0,0,.2-.53A1.71,1.71,0,0,0,25,31.6a.8.8,0,0,0-.27-.67,1.31,1.31,0,0,0-.8-.26ZM15.74,31.7,18,37.35l.07-.13a1.07,1.07,0,0,0,.07-.15.44.44,0,0,0,0-.15.91.91,0,0,0-.1-.4L16.15,31.7a7.07,7.07,0,0,0-.32-.71.66.66,0,0,0-.28-.27.94.94,0,0,0-.47,0,.88.88,0,0,1,.34.35A5,5,0,0,1,15.74,31.7Zm4.76-.08,2.33,5.7a1.11,1.11,0,0,0,.17-.48,1.23,1.23,0,0,0-.12-.4l-2-5c-.11-.25-.19-.41-.24-.51a.58.58,0,0,0-.25-.21,1.24,1.24,0,0,0-.49-.08A2.11,2.11,0,0,1,20.5,31.62Zm5.34-.95H24.68a.89.89,0,0,1,.39.34,1,1,0,0,1,.13.46,2.93,2.93,0,0,1,.27-.46A1.5,1.5,0,0,1,25.84,30.67Z" transform="translate(-11.72 -26.37)"/><path class="cls-1" d="M28.23,36.36a.77.77,0,0,1,.52.18A.6.6,0,0,1,29,37a.55.55,0,0,1-.1.32.75.75,0,0,1-.27.23.74.74,0,0,1-.36.09.76.76,0,0,1-.51-.19.6.6,0,0,1,0-.91A.74.74,0,0,1,28.23,36.36Zm.12,1.06a1.59,1.59,0,0,1-.19-.2A.43.43,0,0,1,28.1,37a.45.45,0,0,1,.06-.26.66.66,0,0,1,.19-.18h-.14a.51.51,0,0,0-.35.13.43.43,0,0,0-.15.33.4.4,0,0,0,.15.31.48.48,0,0,0,.34.13Z" transform="translate(-11.72 -26.37)"/><path class="cls-1" d="M30.41,34.94h.38a5.2,5.2,0,0,0,.78,1.34,2.94,2.94,0,0,0,1,.8,2.45,2.45,0,0,0,1.12.26A2.05,2.05,0,0,0,34.94,37a1.23,1.23,0,0,0,.52-1,1.15,1.15,0,0,0-.35-.89,1.88,1.88,0,0,0-.82-.45A10,10,0,0,0,33,34.36a7.35,7.35,0,0,1-1.11-.21,2.92,2.92,0,0,1-.87-.41,1.73,1.73,0,0,1-.54-.64,1.65,1.65,0,0,1-.19-.79,1.92,1.92,0,0,1,.17-.78,2,2,0,0,1,1.19-1.11,2.69,2.69,0,0,1,1-.17,6.17,6.17,0,0,1,.93.1,5.69,5.69,0,0,0,.81.09,1.45,1.45,0,0,0,.59-.12h.45l.25,2.07h-.41A5.09,5.09,0,0,0,34.05,31a2.33,2.33,0,0,0-1.48-.49,1.93,1.93,0,0,0-.79.17,1.49,1.49,0,0,0-.58.47,1,1,0,0,0-.22.65.86.86,0,0,0,.4.77,3,3,0,0,0,1.18.4c.52.1,1,.17,1.4.24a4.24,4.24,0,0,1,1,.24,2.47,2.47,0,0,1,1,.78,1.91,1.91,0,0,1,.37,1.13A2.08,2.08,0,0,1,36,36.47a2.46,2.46,0,0,1-1,.84,2.94,2.94,0,0,1-1.37.32,2.55,2.55,0,0,1-.64-.06l-.75-.22a3.31,3.31,0,0,0-.81-.16.92.92,0,0,0-.74.31h-.33Zm.19-3.22a2.44,2.44,0,0,0-.1.62,1.49,1.49,0,0,0,.11.54,1.87,1.87,0,0,0,.77.9,2.38,2.38,0,0,0,.76.28c.28.06.68.12,1.22.2a6.19,6.19,0,0,1,1.1.22,1.74,1.74,0,0,1,.88.54,1.24,1.24,0,0,1,.31.85,1.49,1.49,0,0,1-.24.76,1.3,1.3,0,0,0,.48-1,1.23,1.23,0,0,0-.35-.93,2.2,2.2,0,0,0-.88-.51,9.78,9.78,0,0,0-1.44-.3l-.93-.14A2.44,2.44,0,0,1,31,33.1,1.48,1.48,0,0,1,30.6,32v-.18A.65.65,0,0,1,30.6,31.72Zm0,4.16v1.34a.86.86,0,0,1,.31-.24,1.11,1.11,0,0,1,.45,0l-.28-.29a1.54,1.54,0,0,1-.21-.28A2.56,2.56,0,0,1,30.6,35.88ZM35,31.68l-.2-1a1.58,1.58,0,0,1-.38.05,2.58,2.58,0,0,1-.46-.05,1.77,1.77,0,0,1,.41.29,4.74,4.74,0,0,1,.37.39A2.79,2.79,0,0,0,35,31.68Z" transform="translate(-11.72 -26.37)"/><path class="cls-1" d="M38.36,36.36a.77.77,0,0,1,.52.18.61.61,0,0,1,.22.46.56.56,0,0,1-.11.32.75.75,0,0,1-.27.23.74.74,0,0,1-.36.09.76.76,0,0,1-.51-.19.6.6,0,0,1,0-.91A.74.74,0,0,1,38.36,36.36Zm.12,1.06a1.59,1.59,0,0,1-.19-.2.43.43,0,0,1-.06-.24.45.45,0,0,1,.06-.26.66.66,0,0,1,.19-.18h-.14a.51.51,0,0,0-.35.13.43.43,0,0,0-.15.33.4.4,0,0,0,.15.31.48.48,0,0,0,.34.13Z" transform="translate(-11.72 -26.37)"/><path class="cls-1" d="M45,37.5H40.38v-.28a3.17,3.17,0,0,0,.74-.08.56.56,0,0,0,.35-.23,1.07,1.07,0,0,0,.1-.5V31.34a.52.52,0,0,0-.28-.51,2.81,2.81,0,0,0-.91-.16v-.28h4.84a5.38,5.38,0,0,1,1.74.27,4,4,0,0,1,1.36.75,3.28,3.28,0,0,1,.88,1.15A3.32,3.32,0,0,1,49.51,34a3,3,0,0,1-.32,1.4,3.21,3.21,0,0,1-.91,1.11,4.45,4.45,0,0,1-1.44.74A6.14,6.14,0,0,1,45,37.5Zm-2.88-1.06V31.78a1.87,1.87,0,0,0-.13-.84c-.09-.17-.31-.25-.67-.25a.58.58,0,0,1,.33.27,1.11,1.11,0,0,1,.08.5v4.85a2.13,2.13,0,0,1,0,.49.68.68,0,0,1-.12.27.66.66,0,0,1-.25.15.67.67,0,0,0,.8-.78ZM43,32.12v4.07a2,2,0,0,0,.08.64.47.47,0,0,0,.33.29,2.53,2.53,0,0,0,.85.1,5,5,0,0,0,1.15-.11,3.32,3.32,0,0,0,1-.4,3.2,3.2,0,0,0,.84-.71,2.35,2.35,0,0,0,.44-.88,3.76,3.76,0,0,0,.14-1.1,3,3,0,0,0-2.3-3.2,5.77,5.77,0,0,0-1.4-.15,1.48,1.48,0,0,0-.77.14.55.55,0,0,0-.27.39A6.15,6.15,0,0,0,43,32.12Zm2.74,5.1a3,3,0,0,0,1.35-.44,2.68,2.68,0,0,0,.95-1.07A3.74,3.74,0,0,0,48.42,34a4.65,4.65,0,0,0-.16-1.27,3.22,3.22,0,0,0-.49-1,2.48,2.48,0,0,0-.79-.69,2.78,2.78,0,0,0-.56-.24,5.56,5.56,0,0,0-.64-.13A3.18,3.18,0,0,1,48,34.07a3.75,3.75,0,0,1-.24,1.39,2.72,2.72,0,0,1-.74,1A3.8,3.8,0,0,1,45.78,37.22Z" transform="translate(-11.72 -26.37)"/><path class="cls-1" d="M51.49,36.36a.77.77,0,0,1,.52.18.58.58,0,0,1,.22.46.56.56,0,0,1-.11.32.62.62,0,0,1-.27.23.74.74,0,0,1-.36.09.76.76,0,0,1-.51-.19.6.6,0,0,1,0-.91A.76.76,0,0,1,51.49,36.36Zm.12,1.06a1.59,1.59,0,0,1-.19-.2.43.43,0,0,1-.06-.24.45.45,0,0,1,.06-.26.66.66,0,0,1,.19-.18h-.14a.53.53,0,0,0-.35.13A.43.43,0,0,0,51,37a.4.4,0,0,0,.15.31.48.48,0,0,0,.34.13Z" transform="translate(-11.72 -26.37)"/><path class="cls-1" d="M53.55,30.39H61l.42,1.66H61a3.29,3.29,0,0,0-1-.95,2.37,2.37,0,0,0-.92-.36A8.43,8.43,0,0,0,58,30.67V36.4a.86.86,0,0,0,.12.5.62.62,0,0,0,.4.24,3.77,3.77,0,0,0,.79.08v.28H55.19v-.28a3.7,3.7,0,0,0,.78-.07.57.57,0,0,0,.41-.24.89.89,0,0,0,.14-.57V30.67a5,5,0,0,0-1.1.11,2.71,2.71,0,0,0-.79.28,2.39,2.39,0,0,0-.52.37c-.14.13-.34.34-.61.62h-.36Zm1.09.28h-1l-.23.85A4.54,4.54,0,0,1,54,31,3.23,3.23,0,0,1,54.64,30.67Zm2.45,5.55V31.27a1,1,0,0,0-.08-.44.33.33,0,0,0-.3-.16V36.4a1.22,1.22,0,0,1-.08.5.78.78,0,0,1-.33.32h.13c.28,0,.46-.07.54-.23A1.78,1.78,0,0,0,57.09,36.22Zm3.67-4.75-.27-.8h-1.1a2.6,2.6,0,0,1,.75.31A4.89,4.89,0,0,1,60.76,31.47Z" transform="translate(-11.72 -26.37)"/><path class="cls-1" d="M63.13,36.36a.76.76,0,0,1,.51.18.58.58,0,0,1,.22.46.56.56,0,0,1-.11.32.65.65,0,0,1-.26.23.8.8,0,0,1-.36.09.77.77,0,0,1-.52-.19.6.6,0,0,1,0-.91A.77.77,0,0,1,63.13,36.36Zm.11,1.06a1.59,1.59,0,0,1-.19-.2A.43.43,0,0,1,63,37a.45.45,0,0,1,.06-.26.66.66,0,0,1,.19-.18H63.1a.53.53,0,0,0-.35.13.43.43,0,0,0-.15.33.4.4,0,0,0,.15.31.48.48,0,0,0,.34.13Z" transform="translate(-11.72 -26.37)"/><path class="cls-2" d="M12.53,41.33H65.11c1.06,0,3.09-1.6,1.14-1.6H13.67c-1.06,0-3.08,1.6-1.14,1.6Z" transform="translate(-11.72 -26.37)"/><path class="cls-2" d="M66.25,26.37H13.67c-1.06,0-3.08,1.6-1.14,1.6H65.11c1.06,0,3.09-1.6,1.14-1.6Z" transform="translate(-11.72 -26.37)"/></svg>