<svg width="48" height="49" viewBox="0 0 48 49" fill="none" xmlns="http://www.w3.org/2000/svg">
<path d="M30.6 42.8945L17.45 38.2445L8.5 41.7945C7.93333 42.0945 7.375 42.0779 6.825 41.7445C6.275 41.4112 6 40.9112 6 40.2445V12.3445C6 11.9112 6.125 11.5279 6.375 11.1945C6.625 10.8612 6.95 10.6112 7.35 10.4445L17.45 6.89453L30.6 11.4945L39.5 7.94453C40.0667 7.67786 40.625 7.70286 41.175 8.01953C41.725 8.3362 42 8.82786 42 9.49453V37.7445C42 38.1112 41.875 38.4279 41.625 38.6945C41.375 38.9612 41.0667 39.1612 40.7 39.2945L30.6 42.8945ZM28.9 39.1445V13.8945L19.1 10.5945V35.8445L28.9 39.1445ZM31.9 39.1445L39 36.7945V11.1945L31.9 13.8945V39.1445ZM9 38.5445L16.1 35.8445V10.5945L9 12.9445V38.5445ZM31.9 13.8945V39.1445V13.8945ZM16.1 10.5945V35.8445V10.5945Z" fill="#52F2DF"/>
</svg>
