<svg width="33" height="49" viewBox="0 0 33 49" fill="none" xmlns="http://www.w3.org/2000/svg">
<path d="M16.5 35.2005C20.6167 31.8755 23.724 28.6792 25.8219 25.6115C27.9198 22.5438 28.9688 19.6839 28.9688 17.0318C28.9688 14.6964 28.5432 12.7172 27.6922 11.0943C26.8411 9.47137 25.7922 8.14533 24.5453 7.11616C23.2984 6.087 21.9427 5.34481 20.4781 4.8896C19.0135 4.43439 17.6875 4.20679 16.5 4.20679C15.3125 4.20679 13.9865 4.43439 12.5219 4.8896C11.0573 5.34481 9.70156 6.087 8.45469 7.11616C7.20781 8.14533 6.15885 9.47137 5.30781 11.0943C4.45677 12.7172 4.03125 14.6964 4.03125 17.0318C4.03125 19.6839 5.08021 22.5438 7.17812 25.6115C9.27604 28.6792 12.3833 31.8755 16.5 35.2005ZM16.5 39.713C11.0771 35.636 7.04948 31.737 4.41719 28.0162C1.7849 24.2953 0.46875 20.6339 0.46875 17.0318C0.46875 14.3401 0.953646 11.975 1.92344 9.93647C2.89323 7.89793 4.15 6.18595 5.69375 4.80054C7.2375 3.41512 8.95938 2.37606 10.8594 1.68335C12.7594 0.990641 14.6396 0.644287 16.5 0.644287C18.3604 0.644287 20.2406 0.990641 22.1406 1.68335C24.0406 2.37606 25.7625 3.41512 27.3062 4.80054C28.85 6.18595 30.1068 7.89793 31.0766 9.93647C32.0464 11.975 32.5312 14.3401 32.5312 17.0318C32.5312 20.6339 31.2151 24.2953 28.5828 28.0162C25.9505 31.737 21.9229 35.636 16.5 39.713ZM16.5 20.8318C17.6479 20.8318 18.6276 20.4261 19.4391 19.6146C20.2505 18.8031 20.6562 17.8235 20.6562 16.6755C20.6562 15.5276 20.2505 14.5479 19.4391 13.7365C18.6276 12.925 17.6479 12.5193 16.5 12.5193C15.3521 12.5193 14.3724 12.925 13.5609 13.7365C12.7495 14.5479 12.3438 15.5276 12.3438 16.6755C12.3438 17.8235 12.7495 18.8031 13.5609 19.6146C14.3724 20.4261 15.3521 20.8318 16.5 20.8318ZM0.46875 48.1443V44.5818H32.5312V48.1443H0.46875Z" fill="#52F2DF"/>
</svg>
