<svg width="57" height="58" viewBox="0 0 57 58" fill="none" xmlns="http://www.w3.org/2000/svg">
<path d="M37.2281 38.8539L39.9 36.182L30.4594 26.682V14.7477H26.8969V28.107L37.2281 38.8539ZM28.5 51.1445C25.2542 51.1445 22.1865 50.5211 19.2969 49.2742C16.4073 48.0273 13.8839 46.3253 11.7266 44.168C9.56927 42.0107 7.86719 39.4872 6.62031 36.5977C5.37344 33.7081 4.75 30.6404 4.75 27.3945C4.75 24.1487 5.37344 21.081 6.62031 18.1914C7.86719 15.3018 9.56927 12.7784 11.7266 10.6211C13.8839 8.4638 16.4073 6.76172 19.2969 5.51484C22.1865 4.26797 25.2542 3.64453 28.5 3.64453C31.7458 3.64453 34.8135 4.26797 37.7031 5.51484C40.5927 6.76172 43.1161 8.4638 45.2734 10.6211C47.4307 12.7784 49.1328 15.3018 50.3797 18.1914C51.6266 21.081 52.25 24.1487 52.25 27.3945C52.25 30.6404 51.6266 33.7081 50.3797 36.5977C49.1328 39.4872 47.4307 42.0107 45.2734 44.168C43.1161 46.3253 40.5927 48.0273 37.7031 49.2742C34.8135 50.5211 31.7458 51.1445 28.5 51.1445ZM28.5 47.582C34.0417 47.582 38.7917 45.6029 42.75 41.6445C46.7083 37.6862 48.6875 32.9362 48.6875 27.3945C48.6875 21.8529 46.7083 17.1029 42.75 13.1445C38.7917 9.1862 34.0417 7.20703 28.5 7.20703C22.9583 7.20703 18.2083 9.1862 14.25 13.1445C10.2917 17.1029 8.3125 21.8529 8.3125 27.3945C8.3125 32.9362 10.2917 37.6862 14.25 41.6445C18.2083 45.6029 22.9583 47.582 28.5 47.582Z" fill="#52F2DF"/>
</svg>
